<svg xmlns="http://www.w3.org/2000/svg" width="64" height="64" viewBox="0 0 64 64">
  <g id="Group_661" data-name="Group 661" transform="translate(-358 -281)">
    <g id="Group_631" data-name="Group 631" transform="translate(-15 31)">
      <g id="Group_594" data-name="Group 594">
        <g id="Group_591" data-name="Group 591">
          <path id="Path_817" data-name="Path 817" d="M384,264c-3.421,0-6-3.224-6-7.5,0-3.026.682-6.5,6-6.5s6,3.474,6,6.5C390,260.776,387.421,264,384,264Zm0-12c-3.028,0-4,1.093-4,4.5,0,2.667,1.4,5.5,4,5.5s4-2.833,4-5.5C388,253.093,387.028,252,384,252Z" fill="#dd1a1e"/>
        </g>
        <g id="Group_592" data-name="Group 592">
          <path id="Path_818" data-name="Path 818" d="M392,272h-2v-2h2c.3,0,1-.776,1-2v-1.42l-6.5-3.712.992-1.736,7.5,4.288V268C395,270.168,393.626,272,392,272Z" fill="#dd1a1e"/>
        </g>
        <g id="Group_593" data-name="Group 593">
          <path id="Path_819" data-name="Path 819" d="M378,272h-2c-1.626,0-3-1.832-3-4v-2.58l7.5-4.288.992,1.736L375,266.58V268c0,1.224.7,2,1,2h2Z" fill="#dd1a1e"/>
        </g>
      </g>
      <g id="Group_598" data-name="Group 598">
        <g id="Group_595" data-name="Group 595">
          <path id="Path_820" data-name="Path 820" d="M384,285c-3.421,0-6-3.224-6-7.5,0-3.026.682-6.5,6-6.5s6,3.474,6,6.5C390,281.776,387.421,285,384,285Zm0-12c-3.028,0-4,1.093-4,4.5,0,2.667,1.4,5.5,4,5.5s4-2.833,4-5.5C388,274.093,387.028,273,384,273Z" fill="#dd1a1e"/>
        </g>
        <g id="Group_596" data-name="Group 596">
          <path id="Path_821" data-name="Path 821" d="M392,293h-2v-2h2c.3,0,1-.776,1-2v-1.42l-6.5-3.712.992-1.736,7.5,4.288V289C395,291.168,393.626,293,392,293Z" fill="#dd1a1e"/>
        </g>
        <g id="Group_597" data-name="Group 597">
          <path id="Path_822" data-name="Path 822" d="M378,293h-2c-1.626,0-3-1.832-3-4v-2.58l7.5-4.288.992,1.736L375,287.58V289c0,1.224.7,2,1,2h2Z" fill="#dd1a1e"/>
        </g>
      </g>
      <g id="Group_601" data-name="Group 601">
        <g id="Group_599" data-name="Group 599">
          <path id="Path_823" data-name="Path 823" d="M384,306c-3.421,0-6-3.225-6-7.5,0-3.026.682-6.5,6-6.5s6,3.474,6,6.5C390,302.775,387.421,306,384,306Zm0-12c-3.028,0-4,1.093-4,4.5,0,2.666,1.4,5.5,4,5.5s4-2.834,4-5.5C388,295.093,387.028,294,384,294Z" fill="#dd1a1e"/>
        </g>
        <g id="Group_600" data-name="Group 600">
          <path id="Path_824" data-name="Path 824" d="M392,314H376c-1.626,0-3-1.832-3-4v-2.58l7.5-4.288.992,1.736L375,308.58V310c0,1.224.7,2,1,2h16c.3,0,1-.776,1-2v-1.42l-6.5-3.712.992-1.736,7.5,4.288V310C395,312.168,393.626,314,392,314Z" fill="#dd1a1e"/>
        </g>
      </g>
      <g id="Group_602" data-name="Group 602">
        <path id="Path_825" data-name="Path 825" d="M437,308H397v-2h38v-6H392v-2h45Z" fill="#dd1a1e"/>
      </g>
      <g id="Group_603" data-name="Group 603">
        <path id="Path_826" data-name="Path 826" d="M437,287H397v-2h38v-6H392v-2h45Z" fill="#dd1a1e"/>
      </g>
      <g id="Group_604" data-name="Group 604">
        <path id="Path_827" data-name="Path 827" d="M437,266H397v-2h38v-6H392v-2h45Z" fill="#dd1a1e"/>
      </g>
      <g id="Group_605" data-name="Group 605">
        <rect id="Rectangle_622" data-name="Rectangle 622" width="2" height="2" transform="translate(397 260)" fill="#dd1a1e"/>
      </g>
      <g id="Group_606" data-name="Group 606">
        <rect id="Rectangle_623" data-name="Rectangle 623" width="2" height="2" transform="translate(401 260)" fill="#dd1a1e"/>
      </g>
      <g id="Group_607" data-name="Group 607">
        <rect id="Rectangle_624" data-name="Rectangle 624" width="2" height="2" transform="translate(405 260)" fill="#dd1a1e"/>
      </g>
      <g id="Group_608" data-name="Group 608">
        <rect id="Rectangle_625" data-name="Rectangle 625" width="2" height="2" transform="translate(409 260)" fill="#dd1a1e"/>
      </g>
      <g id="Group_609" data-name="Group 609">
        <rect id="Rectangle_626" data-name="Rectangle 626" width="2" height="2" transform="translate(413 260)" fill="#dd1a1e"/>
      </g>
      <g id="Group_610" data-name="Group 610">
        <rect id="Rectangle_627" data-name="Rectangle 627" width="2" height="2" transform="translate(417 260)" fill="#dd1a1e"/>
      </g>
      <g id="Group_611" data-name="Group 611">
        <rect id="Rectangle_628" data-name="Rectangle 628" width="2" height="2" transform="translate(397 281)" fill="#dd1a1e"/>
      </g>
      <g id="Group_612" data-name="Group 612">
        <rect id="Rectangle_629" data-name="Rectangle 629" width="2" height="2" transform="translate(401 281)" fill="#dd1a1e"/>
      </g>
      <g id="Group_613" data-name="Group 613">
        <rect id="Rectangle_630" data-name="Rectangle 630" width="2" height="2" transform="translate(405 281)" fill="#dd1a1e"/>
      </g>
      <g id="Group_614" data-name="Group 614">
        <rect id="Rectangle_631" data-name="Rectangle 631" width="2" height="2" transform="translate(409 281)" fill="#dd1a1e"/>
      </g>
      <g id="Group_615" data-name="Group 615">
        <rect id="Rectangle_632" data-name="Rectangle 632" width="2" height="2" transform="translate(413 281)" fill="#dd1a1e"/>
      </g>
      <g id="Group_616" data-name="Group 616">
        <rect id="Rectangle_633" data-name="Rectangle 633" width="2" height="2" transform="translate(417 281)" fill="#dd1a1e"/>
      </g>
      <g id="Group_617" data-name="Group 617">
        <rect id="Rectangle_634" data-name="Rectangle 634" width="2" height="2" transform="translate(421 281)" fill="#dd1a1e"/>
      </g>
      <g id="Group_618" data-name="Group 618">
        <rect id="Rectangle_635" data-name="Rectangle 635" width="2" height="2" transform="translate(425 281)" fill="#dd1a1e"/>
      </g>
      <g id="Group_619" data-name="Group 619">
        <rect id="Rectangle_636" data-name="Rectangle 636" width="2" height="2" transform="translate(397 302)" fill="#dd1a1e"/>
      </g>
      <g id="Group_620" data-name="Group 620">
        <rect id="Rectangle_637" data-name="Rectangle 637" width="2" height="2" transform="translate(401 302)" fill="#dd1a1e"/>
      </g>
      <g id="Group_621" data-name="Group 621">
        <rect id="Rectangle_638" data-name="Rectangle 638" width="2" height="2" transform="translate(405 302)" fill="#dd1a1e"/>
      </g>
      <g id="Group_622" data-name="Group 622">
        <rect id="Rectangle_639" data-name="Rectangle 639" width="2" height="2" transform="translate(409 302)" fill="#dd1a1e"/>
      </g>
      <g id="Group_623" data-name="Group 623">
        <rect id="Rectangle_640" data-name="Rectangle 640" width="2" height="2" transform="translate(413 302)" fill="#dd1a1e"/>
      </g>
      <g id="Group_624" data-name="Group 624">
        <rect id="Rectangle_641" data-name="Rectangle 641" width="8" height="2" transform="translate(397 310)" fill="#dd1a1e"/>
      </g>
      <g id="Group_625" data-name="Group 625">
        <rect id="Rectangle_642" data-name="Rectangle 642" width="20" height="2" transform="translate(407 310)" fill="#dd1a1e"/>
      </g>
      <g id="Group_626" data-name="Group 626">
        <rect id="Rectangle_643" data-name="Rectangle 643" width="18" height="2" transform="translate(397 289)" fill="#dd1a1e"/>
      </g>
      <g id="Group_627" data-name="Group 627">
        <rect id="Rectangle_644" data-name="Rectangle 644" width="10" height="2" transform="translate(417 289)" fill="#dd1a1e"/>
      </g>
      <g id="Group_628" data-name="Group 628">
        <rect id="Rectangle_645" data-name="Rectangle 645" width="4" height="2" transform="translate(413 268)" fill="#dd1a1e"/>
      </g>
      <g id="Group_629" data-name="Group 629">
        <rect id="Rectangle_646" data-name="Rectangle 646" width="14" height="2" transform="translate(397 268)" fill="#dd1a1e"/>
      </g>
      <g id="Group_630" data-name="Group 630">
        <rect id="Rectangle_647" data-name="Rectangle 647" width="8" height="2" transform="translate(419 268)" fill="#dd1a1e"/>
      </g>
    </g>
  </g>
</svg>
