<svg xmlns="http://www.w3.org/2000/svg" width="64" height="60" viewBox="0 0 64 60">
  <g id="Group_660" data-name="Group 660" transform="translate(-267 -250)">
    <g id="Group_587" data-name="Group 587">
      <g id="Group_556" data-name="Group 556">
        <path id="Path_809" data-name="Path 809" d="M289,310H267V250h22Zm-20-2h18V252H269Z" fill="#dd1a1e"/>
      </g>
      <g id="Group_557" data-name="Group 557">
        <rect id="Rectangle_602" data-name="Rectangle 602" width="16" height="2" transform="translate(291 250)" fill="#dd1a1e"/>
      </g>
      <g id="Group_558" data-name="Group 558">
        <rect id="Rectangle_603" data-name="Rectangle 603" width="16" height="2" transform="translate(291 308)" fill="#dd1a1e"/>
      </g>
      <g id="Group_559" data-name="Group 559">
        <path id="Path_810" data-name="Path 810" d="M331,310H309V250h22Zm-20-2h18V252H311Z" fill="#dd1a1e"/>
      </g>
      <g id="Group_560" data-name="Group 560">
        <path id="Path_811" data-name="Path 811" d="M299,304a6,6,0,1,1,6-6A6.006,6.006,0,0,1,299,304Zm0-10a4,4,0,1,0,4,4A4,4,0,0,0,299,294Z" fill="#dd1a1e"/>
      </g>
      <g id="Group_561" data-name="Group 561">
        <path id="Path_812" data-name="Path 812" d="M320,304a6,6,0,1,1,6-6A6.006,6.006,0,0,1,320,304Zm0-10a4,4,0,1,0,4,4A4,4,0,0,0,320,294Z" fill="#dd1a1e"/>
      </g>
      <g id="Group_562" data-name="Group 562">
        <path id="Path_813" data-name="Path 813" d="M278,304a6,6,0,1,1,6-6A6.006,6.006,0,0,1,278,304Zm0-10a4,4,0,1,0,4,4A4,4,0,0,0,278,294Z" fill="#dd1a1e"/>
      </g>
      <g id="Group_563" data-name="Group 563">
        <rect id="Rectangle_604" data-name="Rectangle 604" width="17" height="2" transform="translate(268 286)" fill="#dd1a1e"/>
      </g>
      <g id="Group_564" data-name="Group 564">
        <rect id="Rectangle_605" data-name="Rectangle 605" width="16" height="2" transform="translate(291 286)" fill="#dd1a1e"/>
      </g>
      <g id="Group_565" data-name="Group 565">
        <rect id="Rectangle_606" data-name="Rectangle 606" width="17" height="2" transform="translate(313 286)" fill="#dd1a1e"/>
      </g>
      <g id="Group_572" data-name="Group 572">
        <g id="Group_566" data-name="Group 566">
          <path id="Path_814" data-name="Path 814" d="M285,284H271V254h14Zm-12-2h10V256H273Z" fill="#dd1a1e"/>
        </g>
        <g id="Group_567" data-name="Group 567">
          <rect id="Rectangle_607" data-name="Rectangle 607" width="2" height="2" transform="translate(277 260)" fill="#dd1a1e"/>
        </g>
        <g id="Group_568" data-name="Group 568">
          <rect id="Rectangle_608" data-name="Rectangle 608" width="2" height="2" transform="translate(277 276)" fill="#dd1a1e"/>
        </g>
        <g id="Group_569" data-name="Group 569">
          <rect id="Rectangle_609" data-name="Rectangle 609" width="6" height="2" transform="translate(275 264)" fill="#dd1a1e"/>
        </g>
        <g id="Group_570" data-name="Group 570">
          <rect id="Rectangle_610" data-name="Rectangle 610" width="6" height="2" transform="translate(275 268)" fill="#dd1a1e"/>
        </g>
        <g id="Group_571" data-name="Group 571">
          <rect id="Rectangle_611" data-name="Rectangle 611" width="6" height="2" transform="translate(275 272)" fill="#dd1a1e"/>
        </g>
      </g>
      <g id="Group_579" data-name="Group 579">
        <g id="Group_573" data-name="Group 573">
          <path id="Path_815" data-name="Path 815" d="M306,284H292V254h14Zm-12-2h10V256H294Z" fill="#dd1a1e"/>
        </g>
        <g id="Group_574" data-name="Group 574">
          <rect id="Rectangle_612" data-name="Rectangle 612" width="2" height="2" transform="translate(298 260)" fill="#dd1a1e"/>
        </g>
        <g id="Group_575" data-name="Group 575">
          <rect id="Rectangle_613" data-name="Rectangle 613" width="2" height="2" transform="translate(298 276)" fill="#dd1a1e"/>
        </g>
        <g id="Group_576" data-name="Group 576">
          <rect id="Rectangle_614" data-name="Rectangle 614" width="6" height="2" transform="translate(296 264)" fill="#dd1a1e"/>
        </g>
        <g id="Group_577" data-name="Group 577">
          <rect id="Rectangle_615" data-name="Rectangle 615" width="6" height="2" transform="translate(296 268)" fill="#dd1a1e"/>
        </g>
        <g id="Group_578" data-name="Group 578">
          <rect id="Rectangle_616" data-name="Rectangle 616" width="6" height="2" transform="translate(296 272)" fill="#dd1a1e"/>
        </g>
      </g>
      <g id="Group_586" data-name="Group 586">
        <g id="Group_580" data-name="Group 580">
          <path id="Path_816" data-name="Path 816" d="M327,284H313V254h14Zm-12-2h10V256H315Z" fill="#dd1a1e"/>
        </g>
        <g id="Group_581" data-name="Group 581">
          <rect id="Rectangle_617" data-name="Rectangle 617" width="2" height="2" transform="translate(319 260)" fill="#dd1a1e"/>
        </g>
        <g id="Group_582" data-name="Group 582">
          <rect id="Rectangle_618" data-name="Rectangle 618" width="2" height="2" transform="translate(319 276)" fill="#dd1a1e"/>
        </g>
        <g id="Group_583" data-name="Group 583">
          <rect id="Rectangle_619" data-name="Rectangle 619" width="6" height="2" transform="translate(317 264)" fill="#dd1a1e"/>
        </g>
        <g id="Group_584" data-name="Group 584">
          <rect id="Rectangle_620" data-name="Rectangle 620" width="6" height="2" transform="translate(317 268)" fill="#dd1a1e"/>
        </g>
        <g id="Group_585" data-name="Group 585">
          <rect id="Rectangle_621" data-name="Rectangle 621" width="6" height="2" transform="translate(317 272)" fill="#dd1a1e"/>
        </g>
      </g>
    </g>
  </g>
</svg>
