<svg xmlns="http://www.w3.org/2000/svg" width="64" height="58" viewBox="0 0 64 58">
  <g id="Group_659" data-name="Group 659" transform="translate(159 -539)">
    <g id="Group_457" data-name="Group 457">
      <g id="Group_404" data-name="Group 404">
        <path id="Path_769" data-name="Path 769" d="M-99,597h-53a7.008,7.008,0,0,1-7-7V548h2v42a5.006,5.006,0,0,0,5,5h51V582h2Z" fill="#dd1a1e"/>
      </g>
      <g id="Group_405" data-name="Group 405">
        <path id="Path_770" data-name="Path 770" d="M-99,568h-2V555h-51a7.008,7.008,0,0,1-7-7,7.008,7.008,0,0,1,7-7h7v2h-7a5.006,5.006,0,0,0-5,5,5.006,5.006,0,0,0,5,5h53Z" fill="#dd1a1e"/>
      </g>
      <g id="Group_406" data-name="Group 406">
        <path id="Path_771" data-name="Path 771" d="M-99,551h-2v-8h-4v-2h6Z" fill="#dd1a1e"/>
      </g>
      <g id="Group_407" data-name="Group 407">
        <path id="Path_772" data-name="Path 772" d="M-118,579a4,4,0,0,1-4-4,4,4,0,0,1,4-4,4,4,0,0,1,4,4A4,4,0,0,1-118,579Zm0-6a2,2,0,0,0-2,2,2,2,0,0,0,2,2,2,2,0,0,0,2-2A2,2,0,0,0-118,573Z" fill="#dd1a1e"/>
      </g>
      <g id="Group_408" data-name="Group 408">
        <rect id="Rectangle_517" data-name="Rectangle 517" width="2" height="2" transform="translate(-107 557)" fill="#dd1a1e"/>
      </g>
      <g id="Group_409" data-name="Group 409">
        <rect id="Rectangle_518" data-name="Rectangle 518" width="2" height="2" transform="translate(-111 557)" fill="#dd1a1e"/>
      </g>
      <g id="Group_410" data-name="Group 410">
        <rect id="Rectangle_519" data-name="Rectangle 519" width="2" height="2" transform="translate(-115 557)" fill="#dd1a1e"/>
      </g>
      <g id="Group_411" data-name="Group 411">
        <rect id="Rectangle_520" data-name="Rectangle 520" width="2" height="2" transform="translate(-119 557)" fill="#dd1a1e"/>
      </g>
      <g id="Group_412" data-name="Group 412">
        <rect id="Rectangle_521" data-name="Rectangle 521" width="2" height="2" transform="translate(-123 557)" fill="#dd1a1e"/>
      </g>
      <g id="Group_413" data-name="Group 413">
        <rect id="Rectangle_522" data-name="Rectangle 522" width="2" height="2" transform="translate(-127 557)" fill="#dd1a1e"/>
      </g>
      <g id="Group_414" data-name="Group 414">
        <rect id="Rectangle_523" data-name="Rectangle 523" width="2" height="2" transform="translate(-131 557)" fill="#dd1a1e"/>
      </g>
      <g id="Group_415" data-name="Group 415">
        <rect id="Rectangle_524" data-name="Rectangle 524" width="2" height="2" transform="translate(-135 557)" fill="#dd1a1e"/>
      </g>
      <g id="Group_416" data-name="Group 416">
        <rect id="Rectangle_525" data-name="Rectangle 525" width="2" height="2" transform="translate(-139 557)" fill="#dd1a1e"/>
      </g>
      <g id="Group_417" data-name="Group 417">
        <rect id="Rectangle_526" data-name="Rectangle 526" width="2" height="2" transform="translate(-143 557)" fill="#dd1a1e"/>
      </g>
      <g id="Group_418" data-name="Group 418">
        <rect id="Rectangle_527" data-name="Rectangle 527" width="2" height="2" transform="translate(-147 557)" fill="#dd1a1e"/>
      </g>
      <g id="Group_419" data-name="Group 419">
        <rect id="Rectangle_528" data-name="Rectangle 528" width="2" height="2" transform="translate(-151 557)" fill="#dd1a1e"/>
      </g>
      <g id="Group_420" data-name="Group 420">
        <rect id="Rectangle_529" data-name="Rectangle 529" width="2" height="2" transform="translate(-107 557)" fill="#dd1a1e"/>
      </g>
      <g id="Group_421" data-name="Group 421">
        <rect id="Rectangle_530" data-name="Rectangle 530" width="2" height="2" transform="translate(-111 557)" fill="#dd1a1e"/>
      </g>
      <g id="Group_422" data-name="Group 422">
        <rect id="Rectangle_531" data-name="Rectangle 531" width="2" height="2" transform="translate(-115 557)" fill="#dd1a1e"/>
      </g>
      <g id="Group_423" data-name="Group 423">
        <rect id="Rectangle_532" data-name="Rectangle 532" width="2" height="2" transform="translate(-119 557)" fill="#dd1a1e"/>
      </g>
      <g id="Group_424" data-name="Group 424">
        <rect id="Rectangle_533" data-name="Rectangle 533" width="2" height="2" transform="translate(-123 557)" fill="#dd1a1e"/>
      </g>
      <g id="Group_425" data-name="Group 425">
        <rect id="Rectangle_534" data-name="Rectangle 534" width="2" height="2" transform="translate(-127 557)" fill="#dd1a1e"/>
      </g>
      <g id="Group_426" data-name="Group 426">
        <rect id="Rectangle_535" data-name="Rectangle 535" width="2" height="2" transform="translate(-131 557)" fill="#dd1a1e"/>
      </g>
      <g id="Group_427" data-name="Group 427">
        <rect id="Rectangle_536" data-name="Rectangle 536" width="2" height="2" transform="translate(-135 557)" fill="#dd1a1e"/>
      </g>
      <g id="Group_428" data-name="Group 428">
        <rect id="Rectangle_537" data-name="Rectangle 537" width="2" height="2" transform="translate(-139 557)" fill="#dd1a1e"/>
      </g>
      <g id="Group_429" data-name="Group 429">
        <rect id="Rectangle_538" data-name="Rectangle 538" width="2" height="2" transform="translate(-143 557)" fill="#dd1a1e"/>
      </g>
      <g id="Group_430" data-name="Group 430">
        <rect id="Rectangle_539" data-name="Rectangle 539" width="2" height="2" transform="translate(-147 557)" fill="#dd1a1e"/>
      </g>
      <g id="Group_431" data-name="Group 431">
        <rect id="Rectangle_540" data-name="Rectangle 540" width="2" height="2" transform="translate(-151 557)" fill="#dd1a1e"/>
      </g>
      <g id="Group_432" data-name="Group 432">
        <rect id="Rectangle_541" data-name="Rectangle 541" width="2" height="2" transform="translate(-107 591)" fill="#dd1a1e"/>
      </g>
      <g id="Group_433" data-name="Group 433">
        <rect id="Rectangle_542" data-name="Rectangle 542" width="2" height="2" transform="translate(-111 591)" fill="#dd1a1e"/>
      </g>
      <g id="Group_434" data-name="Group 434">
        <rect id="Rectangle_543" data-name="Rectangle 543" width="2" height="2" transform="translate(-115 591)" fill="#dd1a1e"/>
      </g>
      <g id="Group_435" data-name="Group 435">
        <rect id="Rectangle_544" data-name="Rectangle 544" width="2" height="2" transform="translate(-119 591)" fill="#dd1a1e"/>
      </g>
      <g id="Group_436" data-name="Group 436">
        <rect id="Rectangle_545" data-name="Rectangle 545" width="2" height="2" transform="translate(-123 591)" fill="#dd1a1e"/>
      </g>
      <g id="Group_437" data-name="Group 437">
        <rect id="Rectangle_546" data-name="Rectangle 546" width="2" height="2" transform="translate(-127 591)" fill="#dd1a1e"/>
      </g>
      <g id="Group_438" data-name="Group 438">
        <rect id="Rectangle_547" data-name="Rectangle 547" width="2" height="2" transform="translate(-131 591)" fill="#dd1a1e"/>
      </g>
      <g id="Group_439" data-name="Group 439">
        <rect id="Rectangle_548" data-name="Rectangle 548" width="2" height="2" transform="translate(-135 591)" fill="#dd1a1e"/>
      </g>
      <g id="Group_440" data-name="Group 440">
        <rect id="Rectangle_549" data-name="Rectangle 549" width="2" height="2" transform="translate(-139 591)" fill="#dd1a1e"/>
      </g>
      <g id="Group_441" data-name="Group 441">
        <rect id="Rectangle_550" data-name="Rectangle 550" width="2" height="2" transform="translate(-143 591)" fill="#dd1a1e"/>
      </g>
      <g id="Group_442" data-name="Group 442">
        <rect id="Rectangle_551" data-name="Rectangle 551" width="2" height="2" transform="translate(-147 591)" fill="#dd1a1e"/>
      </g>
      <g id="Group_443" data-name="Group 443">
        <rect id="Rectangle_552" data-name="Rectangle 552" width="2" height="2" transform="translate(-151 591)" fill="#dd1a1e"/>
      </g>
      <g id="Group_444" data-name="Group 444">
        <rect id="Rectangle_553" data-name="Rectangle 553" width="2" height="2" transform="translate(-107 591)" fill="#dd1a1e"/>
      </g>
      <g id="Group_445" data-name="Group 445">
        <rect id="Rectangle_554" data-name="Rectangle 554" width="2" height="2" transform="translate(-111 591)" fill="#dd1a1e"/>
      </g>
      <g id="Group_446" data-name="Group 446">
        <rect id="Rectangle_555" data-name="Rectangle 555" width="2" height="2" transform="translate(-115 591)" fill="#dd1a1e"/>
      </g>
      <g id="Group_447" data-name="Group 447">
        <rect id="Rectangle_556" data-name="Rectangle 556" width="2" height="2" transform="translate(-119 591)" fill="#dd1a1e"/>
      </g>
      <g id="Group_448" data-name="Group 448">
        <rect id="Rectangle_557" data-name="Rectangle 557" width="2" height="2" transform="translate(-123 591)" fill="#dd1a1e"/>
      </g>
      <g id="Group_449" data-name="Group 449">
        <rect id="Rectangle_558" data-name="Rectangle 558" width="2" height="2" transform="translate(-127 591)" fill="#dd1a1e"/>
      </g>
      <g id="Group_450" data-name="Group 450">
        <rect id="Rectangle_559" data-name="Rectangle 559" width="2" height="2" transform="translate(-131 591)" fill="#dd1a1e"/>
      </g>
      <g id="Group_451" data-name="Group 451">
        <rect id="Rectangle_560" data-name="Rectangle 560" width="2" height="2" transform="translate(-135 591)" fill="#dd1a1e"/>
      </g>
      <g id="Group_452" data-name="Group 452">
        <rect id="Rectangle_561" data-name="Rectangle 561" width="2" height="2" transform="translate(-139 591)" fill="#dd1a1e"/>
      </g>
      <g id="Group_453" data-name="Group 453">
        <rect id="Rectangle_562" data-name="Rectangle 562" width="2" height="2" transform="translate(-143 591)" fill="#dd1a1e"/>
      </g>
      <g id="Group_454" data-name="Group 454">
        <rect id="Rectangle_563" data-name="Rectangle 563" width="2" height="2" transform="translate(-147 591)" fill="#dd1a1e"/>
      </g>
      <g id="Group_455" data-name="Group 455">
        <rect id="Rectangle_564" data-name="Rectangle 564" width="2" height="2" transform="translate(-151 591)" fill="#dd1a1e"/>
      </g>
      <g id="Group_456" data-name="Group 456">
        <path id="Path_773" data-name="Path 773" d="M-99,583h-19a8.009,8.009,0,0,1-8-8,8.009,8.009,0,0,1,8-8h19a2,2,0,0,0,2-2,2,2,0,0,0-2-2h-1v-2h1a4,4,0,0,1,4,4v14A4,4,0,0,1-99,583Zm-19-14a6.006,6.006,0,0,0-6,6,6.006,6.006,0,0,0,6,6h19a2,2,0,0,0,2-2V568.463A3.97,3.97,0,0,1-99,569Z" fill="#dd1a1e"/>
      </g>
    </g>
    <g id="Group_458" data-name="Group 458">
      <path id="Path_774" data-name="Path 774" d="M-141,546h-2v-7h36v6h-2v-4h-32Z" fill="#dd1a1e"/>
    </g>
    <g id="Group_459" data-name="Group 459">
      <path id="Path_775" data-name="Path 775" d="M-113,549h-2v-2h-32v2h-2v-4h36Z" fill="#dd1a1e"/>
    </g>
    <g id="Group_460" data-name="Group 460">
      <rect id="Rectangle_565" data-name="Rectangle 565" width="11" height="2" transform="translate(-111 547)" fill="#dd1a1e"/>
    </g>
    <g id="Group_461" data-name="Group 461">
      <rect id="Rectangle_566" data-name="Rectangle 566" width="2" height="3" transform="translate(-131 540)" fill="#dd1a1e"/>
    </g>
    <g id="Group_462" data-name="Group 462">
      <rect id="Rectangle_567" data-name="Rectangle 567" width="2" height="3" transform="translate(-127 540)" fill="#dd1a1e"/>
    </g>
    <g id="Group_463" data-name="Group 463">
      <rect id="Rectangle_568" data-name="Rectangle 568" width="2" height="3" transform="translate(-123 540)" fill="#dd1a1e"/>
    </g>
    <g id="Group_464" data-name="Group 464">
      <rect id="Rectangle_569" data-name="Rectangle 569" width="2" height="3" transform="translate(-119 540)" fill="#dd1a1e"/>
    </g>
    <g id="Group_465" data-name="Group 465">
      <rect id="Rectangle_570" data-name="Rectangle 570" width="2" height="3" transform="translate(-115 540)" fill="#dd1a1e"/>
    </g>
    <g id="Group_466" data-name="Group 466">
      <rect id="Rectangle_571" data-name="Rectangle 571" width="2" height="3" transform="translate(-139 540)" fill="#dd1a1e"/>
    </g>
    <g id="Group_467" data-name="Group 467">
      <rect id="Rectangle_572" data-name="Rectangle 572" width="2" height="3" transform="translate(-137 546)" fill="#dd1a1e"/>
    </g>
    <g id="Group_468" data-name="Group 468">
      <rect id="Rectangle_573" data-name="Rectangle 573" width="2" height="3" transform="translate(-133 546)" fill="#dd1a1e"/>
    </g>
    <g id="Group_469" data-name="Group 469">
      <rect id="Rectangle_574" data-name="Rectangle 574" width="2" height="3" transform="translate(-129 546)" fill="#dd1a1e"/>
    </g>
    <g id="Group_470" data-name="Group 470">
      <rect id="Rectangle_575" data-name="Rectangle 575" width="2" height="3" transform="translate(-125 546)" fill="#dd1a1e"/>
    </g>
    <g id="Group_471" data-name="Group 471">
      <rect id="Rectangle_576" data-name="Rectangle 576" width="2" height="3" transform="translate(-121 546)" fill="#dd1a1e"/>
    </g>
    <g id="Group_472" data-name="Group 472">
      <rect id="Rectangle_577" data-name="Rectangle 577" width="2" height="3" transform="translate(-145 546)" fill="#dd1a1e"/>
    </g>
  </g>
</svg>
