<svg id="Group_811" data-name="Group 811" xmlns="http://www.w3.org/2000/svg" width="69.059" height="78.949" viewBox="0 0 69.059 78.949">
  <path id="Path_6" data-name="Path 6" d="M268.117,2146.969l27.646,14.712v-57.043a1.281,1.281,0,0,0-1.941-1.1l-25.953,15.6a2.254,2.254,0,0,0-1.092,1.933l0,25.182Z" transform="translate(-226.703 -2103.355)" fill="#dd1a1e"/>
  <path id="Path_7" data-name="Path 7" d="M268.741,2271.145l25.915-15.581a1.293,1.293,0,0,0-.059-2.249l-27.817-14.8,0,31.526A1.293,1.293,0,0,0,268.741,2271.145Z" transform="translate(-226.707 -2192.382)" fill="#ec6500"/>
  <g id="Group_4" data-name="Group 4" transform="translate(0 39.858)">
    <path id="Path_8" data-name="Path 8" d="M186.589,2226.409v-1.517l-8.436-4.49a2.253,2.253,0,0,0-2.219.058l-25.949,15.6a1.282,1.282,0,0,0,.058,2.229l36.548,19.45Z" transform="translate(-149.364 -2220.138)" fill="#fca01f"/>
  </g>
</svg>
