<svg xmlns="http://www.w3.org/2000/svg" width="248" height="78.949" viewBox="0 0 248 78.949">
  <g id="Group_1" data-name="Group 1" transform="translate(-149.364 -2103.356)">
    <g id="Group_3" data-name="Group 3" transform="translate(236.042 2122.63)">
      <g id="Group_2" data-name="Group 2" transform="translate(0 0)">
        <path id="Path_1" data-name="Path 1" d="M403.8,2192.5l4-3.174a1.207,1.207,0,0,1,1.754.279,8.265,8.265,0,0,0,7.474,4.06c4.65,0,7.911-2.717,7.911-9v-21.858a1.212,1.212,0,0,1,1.212-1.212h6.031a1.212,1.212,0,0,1,1.212,1.212v21.676c0,11.717-6.824,16.909-16.245,16.909-5.546,0-10.82-2.272-13.672-7.38A1.2,1.2,0,0,1,403.8,2192.5Z" transform="translate(-403.328 -2160.993)" fill="#161615"/>
        <path id="Path_2" data-name="Path 2" d="M518.214,2185.15v-22.341a1.212,1.212,0,0,1,1.212-1.212h6.031a1.212,1.212,0,0,1,1.212,1.212v21.918c0,5.859,3.321,8.937,8.455,8.937s8.455-3.078,8.455-8.937v-21.918a1.212,1.212,0,0,1,1.212-1.212h6.029a1.212,1.212,0,0,1,1.212,1.212v22.341c0,10.328-6.884,16.244-16.908,16.244S518.214,2195.478,518.214,2185.15Z" transform="translate(-479.004 -2160.993)" fill="#161615"/>
        <path id="Path_3" data-name="Path 3" d="M754.618,2180c0-11.172,8.636-20.169,20.714-20.169s20.714,9,20.714,20.169c0,11.233-8.636,20.231-20.714,20.231S754.618,2191.231,754.618,2180Zm32.611,0c0-6.944-5.013-12.5-11.838-12.5s-11.957,5.556-11.957,12.5c0,7.006,5.073,12.562,11.957,12.562C782.216,2192.56,787.229,2187,787.229,2180Z" transform="translate(-634.723 -2159.828)" fill="#161615"/>
        <g id="Group_1-2" data-name="Group 1" transform="translate(79.107 0.604)">
          <path id="Path_4" data-name="Path 4" d="M652.5,2186.078l-9.02-23.694a1.212,1.212,0,0,0-1.135-.787h-6.025a1.212,1.212,0,0,0-1.13,1.651l12.82,32.827a.7.7,0,0,0,1.313-.007l3.175-8.432A2.215,2.215,0,0,0,652.5,2186.078Z" transform="translate(-635.111 -2161.597)" fill="#161615"/>
          <path id="Path_5" data-name="Path 5" d="M701.832,2161.6h-5.969a1.213,1.213,0,0,0-1.133.782c-6.886,18.105-15.392,40.9-14.168,37.413l-.023.067c-.028.077-.049.131-.053.14a.744.744,0,0,0-.048.311.56.56,0,0,0,.288.415.569.569,0,0,0,.2.066h6.624a1.212,1.212,0,0,0,1.13-.773l14.278-36.769A1.213,1.213,0,0,0,701.832,2161.6Z" transform="translate(-664.966 -2161.597)" fill="#161615"/>
        </g>
      </g>
    </g>
    <g id="Group_5" data-name="Group 5" transform="translate(149.364 2103.356)">
      <path id="Path_6" data-name="Path 6" d="M268.117,2146.969l27.646,14.712v-57.043a1.281,1.281,0,0,0-1.941-1.1l-25.953,15.6a2.254,2.254,0,0,0-1.092,1.933l0,25.182Z" transform="translate(-226.703 -2103.355)" fill="#dd1a1e"/>
      <path id="Path_7" data-name="Path 7" d="M268.741,2271.145l25.915-15.581a1.293,1.293,0,0,0-.059-2.249l-27.817-14.8,0,31.526A1.293,1.293,0,0,0,268.741,2271.145Z" transform="translate(-226.707 -2192.382)" fill="#ec6500"/>
      <g id="Group_4" data-name="Group 4" transform="translate(0 39.858)">
        <path id="Path_8" data-name="Path 8" d="M186.589,2226.409v-1.517l-8.436-4.49a2.253,2.253,0,0,0-2.219.058l-25.949,15.6a1.282,1.282,0,0,0,.058,2.229l36.548,19.45Z" transform="translate(-149.364 -2220.138)" fill="#fca01f"/>
      </g>
    </g>
  </g>
</svg>
