<svg xmlns="http://www.w3.org/2000/svg" width="989.149" height="957.667" viewBox="0 0 989.149 957.667">
  <g id="Group_828" data-name="Group 828" transform="translate(-661.412 -214.478)">
    <path id="NoPath_kopia_17_" data-name="NoPath — kopia (17)" d="M23.274,386.744,542.581,686.565c31.032,17.915,69.819-4.473,69.819-40.314V46.618c0-35.83-38.787-58.229-69.819-40.314L23.274,306.126C-7.758,324.041-7.758,368.829,23.274,386.744Z" transform="matrix(0.259, -0.966, 0.966, 0.259, 661.412, 836.707)" fill="#fff"/>
    <path id="NoPath_kopia_17_2" data-name="NoPath — kopia (17)" d="M20.6,342.256l459.57,265.332c27.462,15.854,61.787-3.959,61.787-35.677V41.256c0-31.708-34.326-51.531-61.788-35.676L20.6,270.912C-6.866,286.766-6.866,326.4,20.6,342.256Z" transform="matrix(0.259, -0.966, 0.966, 0.259, 866.92, 1010.996)" fill="none" stroke="#dd1a1e" stroke-linecap="round" stroke-linejoin="round" stroke-width="4"/>
    <path id="NoPath_kopia_17_3" data-name="NoPath — kopia (17)" d="M13.18,219.01,307.26,388.8a26.358,26.358,0,0,0,39.538-22.83V26.4A26.36,26.36,0,0,0,307.26,3.57L13.18,173.357A26.357,26.357,0,0,0,13.18,219.01Z" transform="matrix(0.966, -0.259, 0.259, 0.966, 1211.578, 306.686)" fill="none" stroke="#ec6500" stroke-linecap="round" stroke-linejoin="round" stroke-width="4"/>
  </g>
</svg>
