<svg xmlns="http://www.w3.org/2000/svg" width="5082.591" height="5478.266" viewBox="0 0 5082.591 5478.266">
  <g id="Group_830" data-name="Group 830" transform="translate(1617.295 -1603.02)">
    <path id="NoPath_kopia_17_" data-name="NoPath — kopia (17)" d="M130.532,2169.018,3043.019,3850.541c174.038,100.475,391.573-25.088,391.573-226.1V261.455c0-200.948-217.536-326.573-391.574-226.1L130.532,1716.882C-43.511,1817.357-43.511,2068.543,130.532,2169.018Z" transform="translate(-1617.295 5138.332) rotate(-60)" fill="#fff"/>
    <g id="Group_829" data-name="Group 829">
      <g id="Group_828" data-name="Group 828">
        <path id="NoPath_kopia_17_2" data-name="NoPath — kopia (17)" d="M44.565,740.526l994.354,574.09c59.418,34.3,133.687-8.565,133.687-77.192V89.264c0-68.606-74.269-111.5-133.687-77.192L44.565,586.162C-14.855,620.465-14.855,706.223,44.565,740.526Z" transform="translate(1289.955 1603.02) rotate(14)" fill="#eee"/>
      </g>
    </g>
  </g>
</svg>
